<svg width="179" height="179" viewBox="0 0 179 179" fill="none" xmlns="http://www.w3.org/2000/svg">
<path d="M19.3797 96.1827C19.3797 90.7092 20.398 85.9041 22.4347 81.7672C24.5349 77.6303 27.3671 74.4481 30.9312 72.2205C34.4953 69.9929 38.4731 68.8792 42.8645 68.8792C46.3649 68.8792 49.5472 69.6111 52.4112 71.0749C55.3388 72.5388 57.63 74.5117 59.2848 76.9939V52.268H75.6096V122.913H59.2848V115.276C57.7573 117.822 55.5616 119.858 52.6976 121.386C49.8972 122.913 46.6196 123.677 42.8645 123.677C38.4731 123.677 34.4953 122.564 30.9312 120.336C27.3671 118.045 24.5349 114.831 22.4347 110.694C20.398 106.493 19.3797 101.656 19.3797 96.1827ZM59.2848 96.2781C59.2848 92.2049 58.1392 88.9908 55.848 86.636C53.6204 84.2812 50.8837 83.1037 47.6379 83.1037C44.392 83.1037 41.6235 84.2812 39.3323 86.636C37.1047 88.9272 35.9909 92.1095 35.9909 96.1827C35.9909 100.256 37.1047 103.502 39.3323 105.92C41.6235 108.275 44.392 109.453 47.6379 109.453C50.8837 109.453 53.6204 108.275 55.848 105.92C58.1392 103.565 59.2848 100.351 59.2848 96.2781Z" fill="white"/>
<path d="M89.5477 107.639L101.099 69.6429H118.474L99.5717 122.913H79.4283L60.5259 69.6429H77.9963L89.5477 107.639Z" fill="#7B7B7B"/>
<path d="M136.231 69.0701C142.468 69.0701 147.433 71.1068 151.124 75.18C154.879 79.1896 156.756 84.7267 156.756 91.7912V122.913H140.527V93.9869C140.527 90.4228 139.604 87.6543 137.758 85.6813C135.912 83.7084 133.43 82.7219 130.312 82.7219C127.194 82.7219 124.712 83.7084 122.866 85.6813C121.02 87.6543 120.097 90.4228 120.097 93.9869V122.913H103.772V69.6429H120.097V76.7075C121.752 74.3527 123.979 72.5069 126.78 71.1704C129.58 69.7703 132.731 69.0701 136.231 69.0701Z" fill="white"/>
</svg>
