<svg width="150" height="150" viewBox="0 0 150 150" fill="none" xmlns="http://www.w3.org/2000/svg">
<rect width="150" height="150" fill="#111111"/>
<path d="M16.24 80.6C16.24 76.0133 17.0933 71.9867 18.8 68.52C20.56 65.0533 22.9333 62.3867 25.92 60.52C28.9067 58.6533 32.24 57.72 35.92 57.72C38.8533 57.72 41.52 58.3333 43.92 59.56C46.3733 60.7867 48.2933 62.44 49.68 64.52V43.8H63.36V103H49.68V96.6C48.4 98.7333 46.56 100.44 44.16 101.72C41.8133 103 39.0667 103.64 35.92 103.64C32.24 103.64 28.9067 102.707 25.92 100.84C22.9333 98.92 20.56 96.2267 18.8 92.76C17.0933 89.24 16.24 85.1867 16.24 80.6ZM49.68 80.68C49.68 77.2667 48.72 74.5733 46.8 72.6C44.9333 70.6267 42.64 69.64 39.92 69.64C37.2 69.64 34.88 70.6267 32.96 72.6C31.0933 74.52 30.16 77.1867 30.16 80.6C30.16 84.0133 31.0933 86.7333 32.96 88.76C34.88 90.7333 37.2 91.72 39.92 91.72C42.64 91.72 44.9333 90.7333 46.8 88.76C48.72 86.7867 49.68 84.0933 49.68 80.68Z" fill="white"/>
<path d="M75.04 90.2L84.72 58.36H99.28L83.44 103H66.56L50.72 58.36H65.36L75.04 90.2Z" fill="#7B7B7B"/>
<path d="M114.16 57.88C119.387 57.88 123.547 59.5867 126.64 63C129.787 66.36 131.36 71 131.36 76.92V103H117.76V78.76C117.76 75.7733 116.987 73.4533 115.44 71.8C113.893 70.1467 111.813 69.32 109.2 69.32C106.587 69.32 104.507 70.1467 102.96 71.8C101.413 73.4533 100.64 75.7733 100.64 78.76V103H86.96V58.36H100.64V64.28C102.027 62.3067 103.893 60.76 106.24 59.64C108.587 58.4667 111.227 57.88 114.16 57.88Z" fill="white"/>
</svg>
