<svg width="27" height="17" viewBox="0 0 27 17" fill="none" xmlns="http://www.w3.org/2000/svg">
<path d="M10.875 7.61728C12.3656 6.90169 13.1437 5.81889 13.1437 4.13348C13.1437 0.809748 10.6781 0 7.83281 0H0V16.6846H8.05313C11.0719 16.6846 13.9078 15.2299 13.9078 11.8402C13.9078 9.74522 12.9187 8.19634 10.875 7.61728V7.61728ZM3.65156 2.84824H7.07812C8.39531 2.84824 9.58125 3.22016 9.58125 4.75492C9.58125 6.17197 8.65781 6.74162 7.35469 6.74162H3.65156V2.84824V2.84824ZM7.55625 13.8505H3.65156V9.25561H7.63125C9.23906 9.25561 10.2563 9.92883 10.2563 11.6378C10.2563 13.3232 9.04219 13.8505 7.55625 13.8505V13.8505ZM24.3609 2.51869H17.625V0.875658H24.3609V2.51869V2.51869ZM27 10.8186C27 7.24536 24.9188 4.2653 21.1453 4.2653C17.4797 4.2653 14.9906 7.03351 14.9906 10.6585C14.9906 14.4201 17.3484 17 21.1453 17C24.0188 17 25.8797 15.7006 26.775 12.9371H23.8594C23.5453 13.9682 22.2516 14.5143 21.2484 14.5143C19.3125 14.5143 18.2953 13.375 18.2953 11.44H26.9719C26.9859 11.2423 27 11.0305 27 10.8186ZM18.3 9.34976C18.4078 7.76322 19.4578 6.76987 21.0422 6.76987C22.7016 6.76987 23.5359 7.7491 23.6766 9.34976H18.3Z" fill="#7B7B7B"/>
</svg>
