<svg width="27" height="22" viewBox="0 0 27 22" fill="none" xmlns="http://www.w3.org/2000/svg">
<path d="M10.4681 15.1647C10.4681 16.362 9.855 18.3213 8.40375 18.3213C6.9525 18.3213 6.33937 16.362 6.33937 15.1647C6.33937 13.9673 6.9525 12.008 8.40375 12.008C9.855 12.008 10.4681 13.9673 10.4681 15.1647V15.1647ZM27 12.2715C27 14.0991 26.82 16.0355 26.0156 17.7141C23.8837 22.1025 18.0225 21.9993 13.8262 21.9993C9.5625 21.9993 3.3525 22.154 1.13625 17.7141C0.315 16.0526 0 14.0991 0 12.2715C0 9.87106 0.781875 7.60238 2.33437 5.76337C2.04187 4.85819 1.90125 3.90718 1.90125 2.96762C1.90125 1.73589 2.17688 1.11715 2.7225 0C5.27062 0 6.90187 0.51561 8.8425 2.06244C10.4737 1.66714 12.15 1.48954 13.8319 1.48954C15.3506 1.48954 16.8806 1.65568 18.3544 2.01661C20.2669 0.486964 21.8981 0 24.4181 0C24.9694 1.11715 25.2394 1.73589 25.2394 2.96762C25.2394 3.90718 25.0931 4.841 24.8062 5.729C26.3531 7.58519 27 9.87106 27 12.2715V12.2715ZM23.3831 15.1647C23.3831 12.6496 21.8813 10.4325 19.2488 10.4325C18.1856 10.4325 17.1675 10.6273 16.0988 10.7762C15.2606 10.908 14.4225 10.9596 13.5619 10.9596C12.7069 10.9596 11.8687 10.908 11.025 10.7762C9.97312 10.6273 8.94375 10.4325 7.875 10.4325C5.2425 10.4325 3.74062 12.6496 3.74062 15.1647C3.74062 20.1947 8.26312 20.9681 12.2006 20.9681H14.9119C18.8663 20.9681 23.3831 20.2004 23.3831 15.1647V15.1647ZM18.7369 12.008C17.2856 12.008 16.6725 13.9673 16.6725 15.1647C16.6725 16.362 17.2856 18.3213 18.7369 18.3213C20.1881 18.3213 20.8012 16.362 20.8012 15.1647C20.8012 13.9673 20.1881 12.008 18.7369 12.008Z" fill="#7B7B7B"/>
</svg>
